# xmcd
#
# Track frame offsets:
#	150
#	15525
#	29198
#	45317
#	57476
#	69679
#	87022
#	98454
#	114509
#	126881
#	142592
#	154230
#	169910
#	182086
#	197852
#
# Disc length: 2776 seconds
#
# Revision: 1
# Processed by: cddbd v1.4PL0 Copyright (c) Steve Scherf et al.
# Submitted via: audiograbber 1.81.03
#
DISCID=c70ad60f
DTITLE=Diverse Artister - Country Showtime 2
DYEAR=2003
DGENRE=Country
TTITLE0=Heidi Hauge - Turn It On, Turn It Up, Turn Me Loose
TTITLE1=Jenny Jensen - Nå Må Du Pinadø Vaske Klæa Dine Sjøl
TTITLE2=Linda Wallinder - A Picture Of Me Without You
TTITLE3=Liv Marit Wedvik - When Yopu Walk In The Room
TTITLE4=Angelia Lidin - To Let Go
TTITLE5=Janne Hansen - Comin` Down In The Rain
TTITLE6=Heidi Hauge - Diggy Liggy Loo
TTITLE7=JJenny Jensen - Om Dagen Aldri Kom
TTITLE8=Liana Wallinder - What Part Of No
TTITLE9=Liv Marit Wedvik - I Don`t Feel That Way
TTITLE10=Heidi Hauge - Love Is The Fundation
TTITLE11=Jenny Jensen - Kor I All Verden
TTITLE12=Liv Marit Wedvik - Then He Kissed Me
TTITLE13=Janne Hansen - Angel Of Love
TTITLE14=Heidi Hauge - I`m Gonna Be A Country Girl Again
EXTD=
EXTT0=
EXTT1=
EXTT2=
EXTT3=
EXTT4=
EXTT5=
EXTT6=
EXTT7=
EXTT8=
EXTT9=
EXTT10=
EXTT11=
EXTT12=
EXTT13=
EXTT14=
PLAYORDER=
